<svg id="Layer_1" data-name="Layer 1" xmlns="http://www.w3.org/2000/svg" viewBox="0 0 433.02 469.32"><defs><style>.cls-1{opacity:0.05;}.cls-2{fill:#1d71b8;}</style></defs><g class="cls-1"><path class="cls-2" d="M49.55,255.79,10.38,278.41A20.81,20.81,0,0,0,0,296.39v45.22a20.82,20.82,0,0,0,10.38,18L49.54,382.2a20.84,20.84,0,0,0,20.77,0l39.16-22.62a20.6,20.6,0,0,0,4.28-3.28,20.82,20.82,0,0,0,6.1-14.7V296.39a20.83,20.83,0,0,0-10.38-18L70.31,255.8A20.83,20.83,0,0,0,49.55,255.79Zm5.4,9.38h0a9.94,9.94,0,0,1,9.94,0l38.73,22.35L59.92,312.76l-43.7-25.24ZM15.79,350.23a10,10,0,0,1-5-8.62V296.89l43.7,25.23v50.46ZM109,341.61a9.94,9.94,0,0,1-5,8.62L65.33,372.59V322.12L109,296.89Z"/></g><g class="cls-1"><path class="cls-2" d="M206.13,171.45,167,194.07a20.83,20.83,0,0,0-10.38,18v45.22a20.82,20.82,0,0,0,10.38,18l39.17,22.61a20.83,20.83,0,0,0,20.76,0l39.16-22.62a20.7,20.7,0,0,0,10.38-18V212.05a20.81,20.81,0,0,0-10.38-18l-39.16-22.61A20.83,20.83,0,0,0,206.13,171.45Zm5.41,9.37h0a9.94,9.94,0,0,1,9.94,0l38.73,22.35-43.7,25.24-43.7-25.24Zm-39.17,85.07a10,10,0,0,1-5-8.62V212.55l43.7,25.23v50.46Zm93.25-8.62a10,10,0,0,1-5,8.62l-38.73,22.36V237.78l43.71-25.23Z"/></g><g class="cls-1"><path class="cls-2" d="M49.55,87.11,10.38,109.72A20.82,20.82,0,0,0,0,127.7v45.23a20.83,20.83,0,0,0,10.38,18l39.16,22.61a20.82,20.82,0,0,0,20.77,0l39.16-22.61a20.82,20.82,0,0,0,10.38-18V127.71a20.84,20.84,0,0,0-10.38-18L70.31,87.11A20.85,20.85,0,0,0,49.55,87.11ZM55,96.48h0a10,10,0,0,1,9.94,0l38.73,22.36L59.92,144.07l-43.7-25.23ZM15.79,181.54a10,10,0,0,1-5-8.61V128.21l43.7,25.23V203.9ZM109,172.93a9.93,9.93,0,0,1-5,8.61L65.33,203.91V153.44L109,128.21Z"/></g><g class="cls-1"><path class="cls-2" d="M362.72,255.79l-39.17,22.62a20.83,20.83,0,0,0-10.38,18v45.22a20.82,20.82,0,0,0,10.38,18l39.17,22.61a20.83,20.83,0,0,0,20.76,0l39.16-22.62a20.34,20.34,0,0,0,4.28-3.28,20.82,20.82,0,0,0,6.1-14.7V296.39a20.81,20.81,0,0,0-10.38-18L383.48,255.8A20.83,20.83,0,0,0,362.72,255.79Zm5.41,9.38h0a9.94,9.94,0,0,1,9.94,0l38.73,22.35-43.7,25.24-43.7-25.24ZM329,350.23a10,10,0,0,1-5-8.62V296.89l43.7,25.23v50.46Zm93.25-8.62a9.94,9.94,0,0,1-5,8.62L378.5,372.59V322.12l43.71-25.23Z"/></g><g class="cls-1"><path class="cls-2" d="M362.72,87.11l-39.17,22.61a20.85,20.85,0,0,0-10.38,18v45.23a20.83,20.83,0,0,0,10.38,18l39.17,22.61a20.8,20.8,0,0,0,20.76,0l39.16-22.61a20.39,20.39,0,0,0,4.28-3.29,20.78,20.78,0,0,0,6.1-14.69V127.71a20.82,20.82,0,0,0-10.38-18L383.48,87.11A20.85,20.85,0,0,0,362.72,87.11Zm5.41,9.37h0a10,10,0,0,1,9.94,0l38.73,22.36-43.7,25.23-43.7-25.23ZM329,181.54a10,10,0,0,1-5-8.61V128.21l43.7,25.23V203.9Zm93.25-8.61a9.93,9.93,0,0,1-5,8.61L378.5,203.91V153.44l43.71-25.23Z"/></g><g class="cls-1"><path class="cls-2" d="M206.13,340.13,167,362.75a20.83,20.83,0,0,0-10.38,18V426a20.81,20.81,0,0,0,10.38,18l39.17,22.61a20.83,20.83,0,0,0,20.76,0l39.16-22.62a20.7,20.7,0,0,0,10.38-18V380.73a20.81,20.81,0,0,0-10.38-18l-39.16-22.61A20.83,20.83,0,0,0,206.13,340.13Zm5.41,9.38h0a9.94,9.94,0,0,1,9.94,0l38.73,22.35-43.7,25.24-43.7-25.24Zm-39.17,85.06a10,10,0,0,1-5-8.62V381.24l43.7,25.22v50.46ZM265.62,426a9.94,9.94,0,0,1-5,8.61l-38.73,22.36V406.46l43.71-25.23Z"/></g><g class="cls-1"><path class="cls-2" d="M206.13,2.77,167,25.38a20.85,20.85,0,0,0-10.38,18V88.59a20.83,20.83,0,0,0,10.38,18l39.17,22.61a20.8,20.8,0,0,0,20.76,0l39.16-22.61a20.76,20.76,0,0,0,10.38-18V43.37a20.82,20.82,0,0,0-10.38-18L226.89,2.77A20.83,20.83,0,0,0,206.13,2.77Zm5.41,9.37h0a10,10,0,0,1,9.94,0L260.21,34.5l-43.7,25.23L172.81,34.5ZM172.37,97.2a10,10,0,0,1-5-8.61V43.87L211.1,69.1v50.46Zm93.25-8.61a9.93,9.93,0,0,1-5,8.61l-38.73,22.37V69.1l43.71-25.23Z"/></g></svg>