<svg xmlns="http://www.w3.org/2000/svg" viewBox="0 0 83.04 90"><defs><style>.cls-1{fill:#1e2346;}.cls-2{fill:#6cb2e3;}</style></defs><g id="Layer_2" data-name="Layer 2"><g id="Layer_1-2" data-name="Layer 1"><path class="cls-1" d="M9.5,49.05,2,53.39a4,4,0,0,0-2,3.45v8.67A4,4,0,0,0,2,69L9.5,73.29a4,4,0,0,0,4,0L21,69a4,4,0,0,0,2-3.45V56.84a4,4,0,0,0-2-3.45l-7.51-4.34A4,4,0,0,0,9.5,49.05Zm1,1.8h0a1.92,1.92,0,0,1,1.91,0l7.42,4.29L11.49,60,3.11,55.14ZM3,67.16a1.91,1.91,0,0,1-1-1.65V56.93l8.38,4.84v9.68Zm17.88-1.65A1.9,1.9,0,0,1,20,67.16l-7.43,4.29V61.77l8.38-4.84Z"/><path class="cls-2" d="M39.53,32.88,32,37.22a4,4,0,0,0-2,3.44v8.68a4,4,0,0,0,2,3.44l7.51,4.34a4,4,0,0,0,4,0L51,52.78a3.58,3.58,0,0,0,.82-.63A4,4,0,0,0,53,49.34V40.66a4,4,0,0,0-2-3.44l-7.51-4.34A4,4,0,0,0,39.53,32.88Zm1,1.8h0a1.9,1.9,0,0,1,1.9,0L49.9,39,41.52,43.8,33.14,39ZM33.06,51a1.91,1.91,0,0,1-1-1.65V40.76l8.38,4.84v9.68Zm17.88-1.65A1.91,1.91,0,0,1,50,51l-7.42,4.29V45.6l8.38-4.84Z"/><path class="cls-1" d="M9.5,16.7,2,21a4,4,0,0,0-2,3.45v8.67a4,4,0,0,0,2,3.45L9.5,41a4,4,0,0,0,4,0L21,36.61a4,4,0,0,0,2-3.45V24.49A4,4,0,0,0,21,21l-7.51-4.33A4,4,0,0,0,9.5,16.7Zm1,1.8h0a1.92,1.92,0,0,1,1.91,0l7.42,4.29-8.38,4.84L3.11,22.79ZM3,34.81a1.91,1.91,0,0,1-1-1.65V24.59l8.38,4.83V39.1Zm17.88-1.65A1.9,1.9,0,0,1,20,34.81L12.53,39.1V29.42l8.38-4.83Z"/><path class="cls-1" d="M69.56,49.05l-7.51,4.34a4,4,0,0,0-2,3.45v8.67a4,4,0,0,0,2,3.45l7.51,4.33a4,4,0,0,0,4,0L81.05,69a4.25,4.25,0,0,0,.82-.63A4,4,0,0,0,83,65.51V56.84a4,4,0,0,0-2-3.45l-7.51-4.34A4,4,0,0,0,69.56,49.05Zm1,1.8h0a1.9,1.9,0,0,1,1.9,0l7.43,4.29L71.55,60l-8.38-4.84ZM63.08,67.16a1.92,1.92,0,0,1-.95-1.65V56.93l8.38,4.84v9.68ZM81,65.51a1.91,1.91,0,0,1-1,1.65l-7.43,4.29V61.77L81,56.93Z"/><path class="cls-1" d="M69.56,16.7,62.05,21a4,4,0,0,0-2,3.45v8.67a4,4,0,0,0,2,3.45L69.56,41a4,4,0,0,0,4,0l7.51-4.34a4.25,4.25,0,0,0,.82-.63A4,4,0,0,0,83,33.16V24.49a4,4,0,0,0-2-3.45l-7.51-4.33A4,4,0,0,0,69.56,16.7Zm1,1.8h0a1.9,1.9,0,0,1,1.9,0l7.43,4.29-8.38,4.84-8.38-4.84ZM63.08,34.81a1.92,1.92,0,0,1-.95-1.65V24.59l8.38,4.83V39.1ZM81,33.16a1.91,1.91,0,0,1-1,1.65L72.58,39.1V29.42L81,24.59Z"/><path class="cls-1" d="M39.53,65.23,32,69.56A4,4,0,0,0,30,73v8.67a4,4,0,0,0,2,3.45l7.51,4.34a4,4,0,0,0,4,0L51,85.13a3.89,3.89,0,0,0,.82-.63A4,4,0,0,0,53,81.68V73a4,4,0,0,0-2-3.45l-7.51-4.33A4,4,0,0,0,39.53,65.23Zm1,1.79h0a1.9,1.9,0,0,1,1.9,0l7.43,4.29-8.38,4.84-8.38-4.84ZM33.06,83.34a1.93,1.93,0,0,1-1-1.66V73.11L40.48,78v9.67Zm17.88-1.66a1.93,1.93,0,0,1-1,1.66l-7.42,4.28V78l8.38-4.84Z"/><path class="cls-1" d="M39.53.53,32,4.87a4,4,0,0,0-2,3.45V17a4,4,0,0,0,2,3.45l7.51,4.33a4,4,0,0,0,4,0L51,20.44a4.25,4.25,0,0,0,.82-.63A4,4,0,0,0,53,17V8.32a4,4,0,0,0-2-3.45L43.51.53A4,4,0,0,0,39.53.53Zm1,1.8h0a1.9,1.9,0,0,1,1.9,0L49.9,6.62l-8.38,4.83L33.14,6.62ZM33.06,18.64a1.91,1.91,0,0,1-1-1.65V8.41l8.38,4.84v9.68ZM50.94,17a1.91,1.91,0,0,1-1,1.65l-7.42,4.29V13.25l8.38-4.84Z"/></g></g></svg>