<svg xmlns="http://www.w3.org/2000/svg" viewBox="0 0 150.08 150.08"><defs><style>.cls-1{fill:#fff;stroke:#1e2346;stroke-miterlimit:10;}.cls-1,.cls-2{stroke-width:3px;}.cls-2{fill:none;stroke:#6cb2e3;stroke-linecap:round;stroke-linejoin:round;}</style></defs><g id="Layer_2" data-name="Layer 2"><g id="Layer_1-2" data-name="Layer 1"><circle class="cls-1" cx="75.04" cy="75.04" r="73.54"/><line class="cls-2" x1="40.05" y1="102.3" x2="75.96" y2="102.3"/><polyline class="cls-2" points="42.48 101.86 42.48 70.66 54.56 70.66 54.56 101.86"/><polyline class="cls-2" points="61.67 101.86 61.67 57.12 73.76 57.12 73.76 101.86"/><polyline class="cls-2" points="80.87 80.77 80.87 42.38 92.95 42.38 92.95 74.89"/><path class="cls-2" d="M94.16,75.67a19.06,19.06,0,1,0,19.06,19.06A19.06,19.06,0,0,0,94.16,75.67Z"/><path class="cls-2" d="M101.37,86.42c-1.46.6-13.61,13.9-15.69,15.88"/><polyline class="cls-2" points="101.38 99.93 101.38 86.42 87.86 86.42"/></g></g></svg>