<svg xmlns="http://www.w3.org/2000/svg" viewBox="0 0 150.08 150.08"><defs><style>.cls-1{fill:#fff;stroke:#1e2346;stroke-miterlimit:10;}.cls-1,.cls-2{stroke-width:3px;}.cls-2{fill:none;stroke:#6cb2e3;stroke-linecap:round;stroke-linejoin:round;}</style></defs><g id="Layer_2" data-name="Layer 2"><g id="Layer_1-2" data-name="Layer 1"><circle class="cls-1" cx="75.04" cy="75.04" r="73.54"/><path class="cls-2" d="M98.15,69.1V51.82a2.78,2.78,0,0,0-2.73-2.73H85.84"/><path class="cls-2" d="M54.19,49.09h-9.8a2.78,2.78,0,0,0-2.73,2.73v59.33a2.77,2.77,0,0,0,2.73,2.73h51a2.77,2.77,0,0,0,2.73-2.73V83.3"/><path class="cls-2" d="M112.25,55.27l6.89,6.89L83.39,97.9c-7.13,7.13-14,.24-6.89-6.89l35.75-35.74Z"/><polyline class="cls-2" points="104.64 85.62 118.02 72.29 106.58 60.85"/><line class="cls-2" x1="70.64" y1="103.54" x2="74.49" y2="99.69"/><path class="cls-2" d="M51.66,64.5l3.2,4.19,3.68-4.8M51.66,75.21l3.2,4.19,3.68-4.81M51.66,85.92l3.2,4.18,3.68-4.8"/><line class="cls-2" x1="64.47" y1="66.03" x2="85.53" y2="66.03"/><line class="cls-2" x1="64.47" y1="76.73" x2="80.05" y2="76.73"/><line class="cls-2" x1="64.47" y1="87.44" x2="72.6" y2="87.44"/><path class="cls-2" d="M54.84,53.19H85V45.06H78.83a8.93,8.93,0,0,0-17.85,0H54.84v8.13Z"/><path class="cls-2" d="M69.9,42a3.06,3.06,0,1,1-3.06,3.06A3.06,3.06,0,0,1,69.9,42Z"/></g></g></svg>