<svg xmlns="http://www.w3.org/2000/svg" viewBox="0 0 150.08 150.08"><defs><style>.cls-1{fill:#fff;stroke:#1e2346;stroke-miterlimit:10;}.cls-1,.cls-2{stroke-width:3px;}.cls-2{fill:none;stroke:#6cb2e3;stroke-linecap:round;stroke-linejoin:round;}</style></defs><g id="Layer_2" data-name="Layer 2"><g id="Layer_1-2" data-name="Layer 1"><circle class="cls-1" cx="75.04" cy="75.04" r="73.54"/><path class="cls-2" d="M78.83,66.33A16.18,16.18,0,1,0,95,82.51,16.17,16.17,0,0,0,78.83,66.33Z"/><path class="cls-2" d="M105.22,37.85A8.13,8.13,0,1,0,113.34,46a8.12,8.12,0,0,0-8.12-8.13Z"/><path class="cls-2" d="M104.38,102.07a8.13,8.13,0,1,0,8.12,8.13,8.13,8.13,0,0,0-8.12-8.13Z"/><path class="cls-2" d="M65,41.82a8.12,8.12,0,1,0,8.12,8.12A8.13,8.13,0,0,0,65,41.82Z"/><line class="cls-2" x1="72.52" y1="67.61" x2="68.22" y2="57.49"/><line class="cls-2" x1="100.24" y1="52.87" x2="88.31" y2="69.39"/><line class="cls-2" x1="89.8" y1="94.4" x2="98.67" y2="104.01"/><path class="cls-2" d="M51.82,101.79a8.12,8.12,0,1,0,10.36,4.95,8.11,8.11,0,0,0-10.36-4.95Z"/><line class="cls-2" x1="60.03" y1="103.34" x2="67.99" y2="94.52"/><line class="cls-2" x1="63.09" y1="78.78" x2="46.6" y2="74.88"/><path class="cls-2" d="M39.61,67.83a5.78,5.78,0,1,0,7,4.21,5.78,5.78,0,0,0-7-4.21Z"/></g></g></svg>