<svg xmlns="http://www.w3.org/2000/svg" viewBox="0 0 341.62 96.28"><defs><style>.cls-1{fill:#1d1d1b;}.cls-2{fill:#488cca;}.cls-3{fill:#2558a3;}.cls-4{fill:#3cbff0;}</style></defs><g id="Layer_2" data-name="Layer 2"><g id="Layer_1-2" data-name="Layer 1"><path class="cls-1" d="M129.4,12.4h7.73V63a27,27,0,0,1-14.48,4.13c-9.31,0-18.22-5.83-18.22-17.1,0-10.62,7.14-17.89,17.3-17.89a13.33,13.33,0,0,1,7.67,2.23Zm0,29.09a10.62,10.62,0,0,0-7.47-3c-5.7,0-9.37,4.65-9.37,11.47,0,6.42,4.71,10.68,10.09,10.68A12.69,12.69,0,0,0,129.4,59Z"/><path class="cls-1" d="M173,62.66c-2.56,2.36-8.32,4.45-14.61,4.45C147.54,67.11,143,61,143,55.38c0-5.76,4.85-10.81,13-10.81,3.34,0,7.41.85,9.63,3V43.65c0-3.14-1.7-5.11-7.27-5.11a24,24,0,0,0-9.24,1.9l-2.36-5.63a28.33,28.33,0,0,1,12.45-2.69c10.94,0,13.83,5.18,13.83,13.17Zm-7.41-9.24a12.48,12.48,0,0,0-7.86-2.82c-4.39,0-6.68,2.55-6.68,5.11s2.29,5.24,7.4,5.24a14.6,14.6,0,0,0,7.14-1.77Z"/><path class="cls-1" d="M184.23,66.13V39.39H178V33.1h6.22V21.77H192V33.1h8.12v6.29H192V66.13Z"/><path class="cls-1" d="M232,62.66c-2.55,2.36-8.32,4.45-14.61,4.45C206.58,67.11,202,61,202,55.38c0-5.76,4.85-10.81,13-10.81,3.34,0,7.4.85,9.63,3V43.65c0-3.14-1.71-5.11-7.28-5.11a24,24,0,0,0-9.24,1.9l-2.35-5.63a28.26,28.26,0,0,1,12.45-2.69c10.94,0,13.82,5.18,13.82,13.17Zm-7.4-9.24a12.51,12.51,0,0,0-7.87-2.82c-4.39,0-6.68,2.55-6.68,5.11s2.29,5.24,7.4,5.24a14.64,14.64,0,0,0,7.15-1.77Z"/><path class="cls-1" d="M240.12,66.13V12.4h7.74V66.13Z"/><path class="cls-1" d="M255.72,22.36a4.95,4.95,0,1,1,9.89,0,4.95,4.95,0,1,1-9.89,0Zm1,43.77V33h7.73V66.13Z"/><path class="cls-1" d="M296,63.18a13.36,13.36,0,0,1-9,3.93c-7.86,0-15.53-6.62-15.53-17.49,0-11.41,8.65-17.5,18.22-17.5a27,27,0,0,1,14,3.41V67.7c0,12.52-8.25,16.19-15.92,16.19a28.24,28.24,0,0,1-14.94-4L276,74a20.57,20.57,0,0,0,11.53,3.47c4.46,0,8.39-2.09,8.39-8.71Zm0-23.33a14.86,14.86,0,0,0-6-1.37c-5.37,0-10.35,3.21-10.35,11.14,0,4.71,2.68,11,8.84,11a8.72,8.72,0,0,0,7.54-4Z"/><path class="cls-1" d="M333.89,66.13v-18c0-5.77-1.05-9.17-6.43-9.17a11.21,11.21,0,0,0-7.6,3.8V66.13h-7.73V33h7.73v3.41a16.06,16.06,0,0,1,10.62-4.33c7.21,0,11.14,3.6,11.14,11.93V66.13Z"/><path class="cls-2" d="M41.69,80.24l-27.79-16V32.09L0,24.07V72.21L41.69,96.28Z"/><polygon class="cls-2" points="27.8 40.12 27.8 56.16 41.69 64.19 41.69 48.14 27.8 40.12"/><polygon class="cls-3" points="27.8 40.12 41.69 48.14 55.59 40.12 41.69 32.09 27.8 40.12"/><polygon class="cls-4" points="41.69 64.19 55.59 56.16 55.59 40.12 41.69 48.14 41.69 64.19"/><path class="cls-4" d="M69.49,32.09v32.1l-27.8,16v16L83.38,72.21V24.07Z"/><polygon class="cls-3" points="55.59 8.02 41.69 0 0 24.07 13.9 32.09 41.69 16.05 55.59 24.07 55.59 8.02"/><polygon class="cls-3" points="69.49 16.05 69.49 32.09 83.38 24.07 69.49 16.05"/></g></g></svg>