<svg xmlns="http://www.w3.org/2000/svg" viewBox="0 0 251.9 59.78"><defs><style>.cls-1{fill:#1d1d1b;}</style></defs><g id="Layer_2" data-name="Layer 2"><g id="Layer_1-2" data-name="Layer 1"><g id="Group_52" data-name="Group 52"><g id="Path_15" data-name="Path 15"><path class="cls-1" d="M16.2,44.57a16.44,16.44,0,0,1-7.83-2c-4.73-2.45-10-7.7-7.91-18.73,0-.19.07-.33.08-.42,0-1.91,5.22-12,15.55-12.18h.3c10.39,0,14.51,10,14.68,10.45l.6,1.48L5.73,36.07A12.3,12.3,0,0,0,10,39.52a13,13,0,0,0,15.62-2.43l2.51,2.4A16.48,16.48,0,0,1,16.2,44.57ZM4,23.73c0,.17-.06.43-.12.76A17.14,17.14,0,0,0,4.11,33l23-11.44c-1.38-2.4-4.84-7-11-6.84C8.12,14.87,4.26,22.59,4,23.73Zm0-.17s0,.08,0,.14S4,23.62,4,23.56Z"/></g><g id="Path_16" data-name="Path 16"><path class="cls-1" d="M202.69,44.18c-7.1-.17-9-4.49-9-6.76V0h3.46V37.42c0,.3.29,3.17,5.59,3.3Z"/></g><g id="Path_17" data-name="Path 17"><path class="cls-1" d="M44.67,44.18c-7.09-.17-9-4.49-9-6.76V0h3.47V37.42c0,.3.28,3.17,5.58,3.3Z"/></g><g id="Path_18" data-name="Path 18"><path class="cls-1" d="M61.14,44h-.75c-15.31-1-15.68-15.6-15.68-15.75a17.52,17.52,0,0,1,4.46-12.4c2.93-3,7-4.6,12.18-4.6,11.69,0,15.53,11,15.93,16.86L77.41,30h-29c.6,3.31,2.95,10,12.21,10.58a11.26,11.26,0,0,0,8.84-3.61L72,39.3A14.73,14.73,0,0,1,61.14,44ZM48.22,26.51H73.56c-.72-3.74-3.3-11.78-12.21-11.78-4.18,0-7.43,1.19-9.68,3.53A13.75,13.75,0,0,0,48.22,26.51Z"/></g><g id="Path_19" data-name="Path 19"><path class="cls-1" d="M145.17,44h-.74c-15.31-1-15.68-15.6-15.68-15.75-.08-1.75,0-8,4.34-12.48,2.88-3,6.95-4.52,12.12-4.52,11.87,0,15.39,11.07,15.59,16.92l.06,1.79H132.41c.6,3.31,3,10,12.21,10.58a11.28,11.28,0,0,0,8.85-3.61L156,39.3A14.73,14.73,0,0,1,145.17,44ZM132.24,26.51h24.9c-.58-3.7-2.89-11.78-11.93-11.78-4.19,0-7.42,1.16-9.63,3.45A13.55,13.55,0,0,0,132.24,26.51Z"/></g><g id="Path_20" data-name="Path 20"><path class="cls-1" d="M104.32,42.8h-3.47V24.08a8.67,8.67,0,1,0-17.33,0V42.8H80.06V24.08a12.13,12.13,0,1,1,24.26,0Z"/></g><g id="Path_21" data-name="Path 21"><path class="cls-1" d="M125.11,42.8h-3.47V24.08a8.66,8.66,0,1,0-17.32,0V42.8h-3.47V24.08a12.13,12.13,0,1,1,24.26,0Z"/></g><g id="Path_22" data-name="Path 22"><path class="cls-1" d="M187.66,42.8h-3.47V24.08a8.67,8.67,0,0,0-17.33,0V42.8H163.4V24.08a12.13,12.13,0,1,1,24.26,0Z"/></g><g id="Line_7" data-name="Line 7"><rect class="cls-1" x="188" y="6.06" width="15.77" height="3.47"/></g><g id="Path_23" data-name="Path 23"><path class="cls-1" d="M228,59.78H206.54V58c0-4.52,6-9.3,13.88-15.08,4-2.84,3.77-5.67,3.65-7,0-.25,0-.44,0-.6S224,30,217.28,30c-6.21,0-7.25,6.88-7.29,7.18l-3.43-.49c.49-3.51,3.36-10.15,10.72-10.15,8.39,0,10.23,6.38,10.23,8.83,0,.08,0,.19,0,.31.14,1.68.5,6.15-5.09,10.12-3.87,2.85-10,7.32-11.85,10.54H228Z"/></g><g id="Path_24" data-name="Path 24"><path class="cls-1" d="M251.9,59.78H230.42V58c0-4.52,6-9.3,13.87-15.08,4-2.84,3.77-5.67,3.66-7,0-.25,0-.44,0-.6S247.84,30,241.16,30c-6.17,0-7.25,6.89-7.3,7.18l-3.43-.49c.5-3.51,3.37-10.15,10.73-10.15,8.38,0,10.22,6.38,10.22,8.83,0,.08,0,.19,0,.31.14,1.68.51,6.15-5.08,10.12-3.88,2.85-10,7.32-11.85,10.54H251.9Z"/></g></g></g></g></svg>