<svg xmlns="http://www.w3.org/2000/svg" viewBox="0 0 416.81 84.93"><defs><style>.cls-1{fill:#1d1d1b;}.cls-2{fill:#2db7c1;}</style></defs><g id="Layer_2" data-name="Layer 2"><g id="Layer_1-2" data-name="Layer 1"><path class="cls-1" d="M15,70.08c-8.38,0-14.86-4.39-15-12H8.67c.23,3.24,2.37,5.38,6.12,5.38s6.07-2,6.07-4.92C20.86,49.8.06,55.06.11,40.43c0-7.28,5.9-11.67,14.22-11.67S28.26,33,28.78,40.26h-8.9c-.17-2.66-2.31-4.74-5.78-4.79-3.18-.12-5.55,1.44-5.55,4.73,0,8.09,20.69,3.59,20.69,17.8C29.24,64.36,24.16,70.08,15,70.08Z"/><path class="cls-1" d="M50.22,70.2c-9.31,0-16.07-6.48-16.07-16.53s6.59-16.53,16.07-16.53C59.47,37.14,66,43.44,66,53a18.22,18.22,0,0,1-.24,3.12H42.36c.4,4.73,3.64,7.39,7.69,7.39a6.59,6.59,0,0,0,6.41-3.87h8.73C63.45,65.52,58.14,70.2,50.22,70.2Zm-7.8-19.54h15.2c-.12-4.21-3.47-6.87-7.63-6.87C46.12,43.79,43.05,46.27,42.42,50.66Z"/><path class="cls-1" d="M116.68,52c0-5.08-2.83-7.74-7.11-7.74S102.4,46.91,102.4,52V69.68H94.31V52c0-5.08-2.83-7.74-7.11-7.74S80,46.91,80,52V69.68H71.89v-32H80v3.87A11.64,11.64,0,0,1,89.4,37.2c5,0,9.07,2.14,11.27,6.12a12.67,12.67,0,0,1,11-6.12c7.69,0,13.12,4.85,13.12,13.7V69.68h-8.09Z"/><path class="cls-1" d="M145,37.14a12.66,12.66,0,0,1,10.58,5.09V37.66h8.15v32h-8.15V65a12.64,12.64,0,0,1-10.63,5.2c-8.09,0-14.57-6.65-14.57-16.65S136.85,37.14,145,37.14Zm2.08,7.11c-4.33,0-8.43,3.24-8.43,9.3s4.1,9.54,8.43,9.54,8.5-3.35,8.5-9.42S151.52,44.25,147.07,44.25Z"/><path class="cls-1" d="M190.3,37.14c8.21,0,14.62,6.42,14.62,16.41S198.51,70.2,190.3,70.2a13.05,13.05,0,0,1-10.57-5.09V84.93h-8.09V37.66h8.09v4.62A12.78,12.78,0,0,1,190.3,37.14Zm-2.14,7.11c-4.33,0-8.43,3.35-8.43,9.42s4.1,9.42,8.43,9.42,8.5-3.47,8.5-9.54S192.56,44.25,188.16,44.25Z"/><path class="cls-1" d="M210.82,26.91h8.09V41.65a12.29,12.29,0,0,1,9.94-4.45c7.22,0,12.48,4.85,12.48,13.7V69.68h-8.09V52c0-5.14-2.83-7.91-7.11-7.91s-7.22,2.77-7.22,7.91V69.68h-8.09Z"/><path class="cls-1" d="M263.23,70.2C254,70.2,247,63.72,247,53.67s7.23-16.53,16.47-16.53,16.47,6.42,16.47,16.53S272.54,70.2,263.23,70.2Zm0-7.05c4.28,0,8.38-3.12,8.38-9.48s-4-9.48-8.26-9.48-8.15,3.06-8.15,9.48S258.9,63.15,263.23,63.15Z"/><path class="cls-1" d="M294,69.68h-8.09v-32H294v5a11.1,11.1,0,0,1,9.82-5.43v8.49h-2.14c-4.79,0-7.68,1.85-7.68,8Z"/><path class="cls-1" d="M323.22,70.2c-9.31,0-16.07-6.48-16.07-16.53s6.59-16.53,16.07-16.53c9.24,0,15.77,6.3,15.77,15.84a18.21,18.21,0,0,1-.23,3.12h-23.4c.4,4.73,3.64,7.39,7.68,7.39a6.6,6.6,0,0,0,6.42-3.87h8.73C336.45,65.52,331.14,70.2,323.22,70.2Zm-7.8-19.54h15.2c-.12-4.21-3.47-6.87-7.63-6.87C319.11,43.79,316.05,46.27,315.42,50.66Z"/><path class="cls-2" d="M386.76,50.68,385.14,48a22.64,22.64,0,0,0-18.66-10.81l.18-6.19a28.83,28.83,0,0,1,22,11.22l7.95-4.88A38.1,38.1,0,0,0,366.9,21.74l-3.1-.08L364.43,0l3.09.08a59.75,59.75,0,0,1,49.29,28.54l-5.28,3.23a53.59,53.59,0,0,0-41.09-25.4l-.27,9.3a44.36,44.36,0,0,1,33.45,21l1.61,2.63Z"/><path class="cls-2" d="M367.86,56.33a4.13,4.13,0,1,1-5.64,1.5,4.14,4.14,0,0,1,5.64-1.5M371,51a10.32,10.32,0,1,0,3.75,14.1A10.31,10.31,0,0,0,371,51Z"/><path class="cls-2" d="M386.76,50.68,385.14,48a22.64,22.64,0,0,0-18.66-10.81l.18-6.19a28.83,28.83,0,0,1,22,11.22l7.95-4.88A38.1,38.1,0,0,0,366.9,21.74l-3.1-.08L364.43,0l3.09.08a59.75,59.75,0,0,1,49.29,28.54l-5.28,3.23a53.59,53.59,0,0,0-41.09-25.4l-.27,9.3a44.36,44.36,0,0,1,33.45,21l1.61,2.63Z"/><path class="cls-2" d="M367.86,56.33a4.13,4.13,0,1,1-5.64,1.5,4.14,4.14,0,0,1,5.64-1.5M371,51a10.32,10.32,0,1,0,3.75,14.1A10.31,10.31,0,0,0,371,51Z"/></g></g></svg>