<svg xmlns="http://www.w3.org/2000/svg" viewBox="0 0 172.35 148.09"><defs><style>.cls-1,.cls-2{fill:none;stroke-linecap:round;stroke-linejoin:round;stroke-width:3px;}.cls-1{stroke:#111c4e;}.cls-2{stroke:#6cb2e3;}</style></defs><g id="Layer_2" data-name="Layer 2"><g id="Layer_1-2" data-name="Layer 1"><line class="cls-1" x1="1.5" y1="146.59" x2="170.85" y2="146.59"/><polygon class="cls-1" points="10.7 98.43 33.33 98.43 33.33 146.26 10.7 146.26 10.7 98.43 10.7 98.43"/><polygon class="cls-1" points="53.47 55.71 76.11 55.71 76.11 146.26 53.47 146.26 53.47 55.71 53.47 55.71"/><polygon class="cls-1" points="96.25 93.85 118.88 93.85 118.88 146.26 96.25 146.26 96.25 93.85 96.25 93.85"/><polygon class="cls-1" points="139.02 74.02 161.66 74.02 161.66 146.26 139.02 146.26 139.02 74.02 139.02 74.02"/><path class="cls-2" d="M22,44.94A13.06,13.06,0,1,0,35.07,58,13,13,0,0,0,22,44.94Z"/><path class="cls-2" d="M64.79,1.5A13.06,13.06,0,1,0,77.85,14.56,13.06,13.06,0,0,0,64.79,1.5Z"/><path class="cls-2" d="M107.56,40.35a13.06,13.06,0,1,0,13.06,13.06,13.06,13.06,0,0,0-13.06-13.06Z"/><path class="cls-2" d="M150.34,20.59A13.06,13.06,0,1,0,163.4,33.65a13.06,13.06,0,0,0-13.06-13.06Z"/><line class="cls-2" x1="33.7" y1="46.13" x2="53.88" y2="26.21"/><line class="cls-2" x1="76.58" y1="25.23" x2="96.95" y2="43.88"/><line class="cls-2" x1="120.42" y1="47.84" x2="135.77" y2="40.38"/></g></g></svg>