<svg xmlns="http://www.w3.org/2000/svg" viewBox="0 0 156.67 133.7"><defs><style>.cls-1,.cls-2{fill:none;stroke-linecap:round;stroke-linejoin:round;stroke-width:3px;}.cls-1{stroke:#111c4e;}.cls-2{stroke:#6cb2e3;}</style></defs><g id="Layer_2" data-name="Layer 2"><g id="Layer_1-2" data-name="Layer 1"><path class="cls-1" d="M1.5,100.17a10.16,10.16,0,0,0,10.16,10.17H145a10.17,10.17,0,0,0,10.17-10.17V88.47H1.5Z"/><path class="cls-1" d="M145,1.5H11.66A10.16,10.16,0,0,0,1.5,11.66V88.47H155.17V11.66A10.16,10.16,0,0,0,145,1.5Z"/><path class="cls-1" d="M98.59,124.54v-14.2H58.08v14.2a7.66,7.66,0,0,1-7.66,7.66h55.83A7.66,7.66,0,0,1,98.59,124.54Z"/><line class="cls-1" x1="128.76" y1="2.72" x2="121.19" y2="10.29"/><line class="cls-1" x1="11.48" y1="88.47" x2="24.39" y2="75.56"/><line class="cls-1" x1="122.39" y1="22.75" x2="143.53" y2="1.61"/><path class="cls-2" d="M78.33,23A25.71,25.71,0,1,0,104,48.75,25.71,25.71,0,0,0,78.33,23Z"/><rect class="cls-2" x="66.85" y="46.93" width="22.98" height="16.93" rx="0.59"/><path class="cls-2" d="M71.68,40.28a6.65,6.65,0,0,1,13.3,0v6.65H71.68Z"/></g></g></svg>