<svg xmlns="http://www.w3.org/2000/svg" viewBox="0 0 150.08 150.08"><defs><style>.cls-1{fill:#fff;stroke:#1e2346;stroke-miterlimit:10;}.cls-1,.cls-2{stroke-width:3px;}.cls-2{fill:none;stroke:#6cb2e3;stroke-linecap:round;stroke-linejoin:round;}</style></defs><g id="Layer_2" data-name="Layer 2"><g id="Layer_1-2" data-name="Layer 1"><circle class="cls-1" cx="75.04" cy="75.04" r="73.54"/><path class="cls-2" d="M105.27,81.06l5.29-5.28c9.12-9.11,4.61-21.4-2.73-29.3a34,34,0,0,0-8-6.46c-3.73-2.1-15.43-5.16-23.08,2.29L60.83,58.1c-4.29,4.27,6.53,8.39,12,3l4-3.94c5.9-5.36,13.33,5.38,22.58-1.93"/><path class="cls-2" d="M43.48,78.56,38.2,73.29C20.6,55.71,51.09,25.54,69,42.93l3.56,3.54"/><path class="cls-2" d="M85.28,61l20.44,21.43c4.17,4.37-2,12.7-7.38,7.18l-9.58-9.88"/><path class="cls-2" d="M80.41,86.37,90.94,97.19c4.22,4.33,12.75-2.07,7.4-7.6L88,79"/><path class="cls-2" d="M77.21,98.32l5.26,5.31c4.26,4.29,12.52-1.84,7.21-7.41"/><path class="cls-2" d="M56,74.21l.56.57a4.9,4.9,0,0,1,0,6.91L49.3,89a4.9,4.9,0,0,1-6.91,0l-.56-.56a4.9,4.9,0,0,1,0-6.91l7.28-7.29a4.91,4.91,0,0,1,6.91,0Z"/><path class="cls-2" d="M68.27,77.55l.56.56a4.91,4.91,0,0,1,0,6.91l-11.6,11.6a4.92,4.92,0,0,1-6.91,0l-.56-.56a4.91,4.91,0,0,1,0-6.92L61.35,77.55a4.89,4.89,0,0,1,6.92,0Z"/><path class="cls-2" d="M73,88.38l.56.56a4.91,4.91,0,0,1,0,6.92l-7.95,8a4.93,4.93,0,0,1-6.92,0l-.56-.57a4.9,4.9,0,0,1,0-6.91l8-8a4.91,4.91,0,0,1,6.92,0Z"/><path class="cls-2" d="M78.12,98.72l.56.56a4.91,4.91,0,0,1,0,6.91l-4.88,4.88a4.91,4.91,0,0,1-6.92,0l-.56-.56a4.91,4.91,0,0,1,0-6.91l4.88-4.88a4.91,4.91,0,0,1,6.92,0Z"/></g></g></svg>